<?xml version="1.0" encoding="UTF-8"?>
<!DOCTYPE svg PUBLIC "-//W3C//DTD SVG 1.1//EN" "http://www.w3.org/Graphics/SVG/1.1/DTD/svg11.dtd">
<svg xmlns="http://www.w3.org/2000/svg" version="1.1" width="512px" height="512px" style="shape-rendering:geometricPrecision; text-rendering:geometricPrecision; image-rendering:optimizeQuality; fill-rule:evenodd; clip-rule:evenodd" xmlns:xlink="http://www.w3.org/1999/xlink">
<g><path style="opacity:0.998" fill="#feb449" d="M 232.5,-0.5 C 247.833,-0.5 263.167,-0.5 278.5,-0.5C 368.144,10.3879 435.644,54.7213 481,132.5C 497.695,163.971 507.861,197.304 511.5,232.5C 511.5,247.833 511.5,263.167 511.5,278.5C 510.09,288.743 508.423,299.076 506.5,309.5C 458.201,261.701 410.035,213.701 362,165.5C 361.601,165.728 361.435,166.062 361.5,166.5C 340.006,137.246 311.006,121.246 274.5,118.5C 231.337,117.501 188.003,117.168 144.5,117.5C 144.167,209.668 144.501,301.668 145.5,393.5C 187.432,432.618 229.099,471.951 270.5,511.5C 257.833,511.5 245.167,511.5 232.5,511.5C 142.856,500.612 75.3562,456.279 30,378.5C 13.3053,347.029 3.1386,313.696 -0.5,278.5C -0.5,263.167 -0.5,247.833 -0.5,232.5C 10.3875,142.857 54.7208,75.3573 132.5,30C 163.971,13.3053 197.304,3.1386 232.5,-0.5 Z"/></g>
<g><path style="opacity:1" fill="#f9e2be" d="M 274.5,118.5 C 268.167,118.5 261.833,118.5 255.5,118.5C 218.833,118.5 182.167,118.5 145.5,118.5C 145.5,209.833 145.5,301.167 145.5,392.5C 182.167,392.5 218.833,392.5 255.5,392.5C 261.833,392.5 268.167,392.5 274.5,392.5C 231.67,393.499 188.67,393.832 145.5,393.5C 144.501,301.668 144.167,209.668 144.5,117.5C 188.003,117.168 231.337,117.501 274.5,118.5 Z"/></g>
<g><path style="opacity:1" fill="#f7fffa" d="M 255.5,118.5 C 255.5,137.5 255.5,156.5 255.5,175.5C 237.659,175.17 219.992,175.503 202.5,176.5C 202.5,229.5 202.5,282.5 202.5,335.5C 220.167,335.5 237.833,335.5 255.5,335.5C 255.5,354.5 255.5,373.5 255.5,392.5C 218.833,392.5 182.167,392.5 145.5,392.5C 145.5,301.167 145.5,209.833 145.5,118.5C 182.167,118.5 218.833,118.5 255.5,118.5 Z"/></g>
<g><path style="opacity:1" fill="#d8d7d7" d="M 255.5,118.5 C 261.833,118.5 268.167,118.5 274.5,118.5C 311.006,121.246 340.006,137.246 361.5,166.5C 372.944,182.653 379.777,200.653 382,220.5C 382.667,242.833 382.667,265.167 382,287.5C 375.338,338.822 347.505,372.656 298.5,389C 290.669,391.361 282.669,392.528 274.5,392.5C 268.167,392.5 261.833,392.5 255.5,392.5C 255.5,373.5 255.5,354.5 255.5,335.5C 281.107,337.803 301.274,328.469 316,307.5C 320.522,299.414 323.189,290.748 324,281.5C 324.667,263.5 324.667,245.5 324,227.5C 319.353,199.521 303.187,182.688 275.5,177C 251.169,176.5 226.836,176.333 202.5,176.5C 219.992,175.503 237.659,175.17 255.5,175.5C 255.5,156.5 255.5,137.5 255.5,118.5 Z"/></g>
<g><path style="opacity:1" fill="#f9880d" d="M 506.5,309.5 C 485.88,394.951 435.546,455.784 355.5,492C 330.621,502.136 304.954,508.636 278.5,511.5C 275.833,511.5 273.167,511.5 270.5,511.5C 229.099,471.951 187.432,432.618 145.5,393.5C 188.67,393.832 231.67,393.499 274.5,392.5C 282.669,392.528 290.669,391.361 298.5,389C 347.505,372.656 375.338,338.822 382,287.5C 382.667,265.167 382.667,242.833 382,220.5C 379.777,200.653 372.944,182.653 361.5,166.5C 361.435,166.062 361.601,165.728 362,165.5C 410.035,213.701 458.201,261.701 506.5,309.5 Z"/></g>
<g><path style="opacity:1" fill="#f9880f" d="M 202.5,176.5 C 226.836,176.333 251.169,176.5 275.5,177C 303.187,182.688 319.353,199.521 324,227.5C 324.667,245.5 324.667,263.5 324,281.5C 323.189,290.748 320.522,299.414 316,307.5C 301.274,328.469 281.107,337.803 255.5,335.5C 237.833,335.5 220.167,335.5 202.5,335.5C 202.5,282.5 202.5,229.5 202.5,176.5 Z"/></g>
</svg>
